<?xml version="1.0" encoding="utf-8"?>
<!-- Svg Vector Icons : http://www.onlinewebfonts.com/icon -->
<!DOCTYPE svg PUBLIC "-//W3C//DTD SVG 1.1//EN" "http://www.w3.org/Graphics/SVG/1.1/DTD/svg11.dtd">
<svg version="1.1" xmlns="http://www.w3.org/2000/svg" xmlns:xlink="http://www.w3.org/1999/xlink" x="0px" y="0px" viewBox="0 0 1000 1000" enable-background="new 0 0 1000 1000" xml:space="preserve">
<metadata> Svg Vector Icons : http://www.onlinewebfonts.com/icon </metadata>
<g><path d="M874.7,184.4l0.5-0.5l-33.5-35.7l-0.4,0.4C753.1,62.9,632.7,10,500,10C229.4,10,10,229.4,10,500c0,121.4,44.3,232.4,117.4,318l-0.4,0.4l9.5,10.1c1.6,1.8,3.2,3.4,4.9,5.2l19.2,20.4l0.5-0.5C249.1,938,368.4,990,500,990c270.6,0,490-219.4,490-490C990,379.8,946.6,269.7,874.7,184.4z M59,500C59,256.8,256.8,59,500,59c118.5,0,226.1,47,305.4,123.3L163.3,784.4C98.3,707.5,59,608.3,59,500z M500,941c-117.3,0-223.9-46.1-303-121l641.8-601.9C902.6,294.6,941,392.9,941,500C941,743.2,743.2,941,500,941z"/><path d="M500.5,613.7c-62.7,0-113.7,51-113.7,113.7c0,62.7,51,113.7,113.7,113.7c62.7,0,113.7-51,113.7-113.7C614.2,664.7,563.2,613.7,500.5,613.7z"/><path d="M763,295.6c3.6,2.2,7.6,3.2,11.5,3.2c7.5,0,14.7-3.8,18.9-10.6c5-8.3,3.9-18.5-2-25.6l-32.6,30.6C760.1,294,761.6,294.7,763,295.6z"/><path d="M500.4,177.9c-99.3,0-196.6,26.8-281.3,77.4c-10.5,6.3-13.9,19.8-7.6,30.3c6.2,10.5,19.8,13.9,30.3,7.6c77.9-46.6,167.4-71.2,258.7-71.2c73.8,0,146.2,16.3,212.4,47l34.6-32.5C671.2,198.2,586.7,177.9,500.4,177.9z"/><path d="M697.6,414.8c3.7,2.3,7.8,3.4,11.8,3.4c7.3,0,14.5-3.6,18.7-10.3c6.5-10.3,3.4-24-6.9-30.5c-10.6-6.7-21.6-12.7-32.7-18.4l-34.4,32.3C669,398.2,683.6,405.9,697.6,414.8z"/><path d="M500.5,313.7c-75.3,0-149,20.4-213.2,59.1c-10.5,6.3-13.8,19.9-7.5,30.3c6.3,10.4,19.9,13.8,30.3,7.5c57.3-34.5,123.1-52.8,190.4-52.8c34.9,0,69.3,4.9,102.3,14.4l36.8-34.5C595.2,322,548.2,313.7,500.5,313.7z"/><path d="M500.5,449.5c-51.5,0-101.8,14.2-145.5,41.1c-10.4,6.4-13.6,20-7.2,30.4c6.4,10.4,20,13.6,30.4,7.2c28.4-17.5,60.2-28.5,93.2-32.6l48.4-45.4C513.3,449.7,506.9,449.5,500.5,449.5z"/><path d="M624.1,529c3.6,2.3,7.7,3.4,11.7,3.4c7.4,0,14.6-3.7,18.8-10.4c6.5-10.4,3.3-24-7-30.5c-21.2-13.2-44-23.4-67.7-30.4L541,497.3C570.4,502.5,598.6,513.1,624.1,529z"/></g>
</svg>